<svg
  xmlns="http://www.w3.org/2000/svg"
  viewBox="0 0 122.881 122.88"
  fill="currentColor"
>
  <g>
    <path d="M61.44 0c16.966 0 32.326 6.877 43.445 17.996 11.119 11.118 17.996 26.479 17.996 43.444 0 16.967-6.877 32.326-17.996 43.444-11.12 11.12-25.48 17.997-43.445 17.997-16.966 0-32.326-6.877-43.444-17.996C6.877 93.766 0 78.406 0 61.439c0-16.965 6.877-32.326 17.996-43.444C29.114 6.877 44.474 0 61.44 0zM80.16 37.369c1.301-1.302 3.412-1.302 4.713 0 1.301 1.301 1.301 3.411 0 4.713L65.512 61.444l19.361 19.362c1.301 1.301 1.301 3.411 0 4.713-1.301 1.301-3.412 1.301-4.713 0L60.798 66.157 41.436 85.52c-1.301 1.301-3.412 1.301-4.713 0-1.301-1.302-1.301-3.412 0-4.713l19.363-19.362L36.723 42.082c-1.301-1.302-1.301-3.412 0-4.713 1.301-1.302 3.412-1.302 4.713 0l19.363 19.362 19.361-19.362zM100.172 22.708c-9.912-9.912-23.606-16.042-38.732-16.042-15.126 0-28.82 6.13-38.731 16.042C12.797 32.62 6.666 46.314 6.666 61.439c0 15.126 6.131 28.82 16.042 38.732 9.912 9.911 23.605 16.042 38.731 16.042 15.126 0 28.82-6.131 38.732-16.042 9.912-9.912 16.043-23.606 16.043-38.732 0-15.125-6.13-28.82-16.042-38.731z"/>
  </g>
</svg>
